<?xml version="1.0" encoding="utf-8"?>
<!-- Generator: Adobe Illustrator 16.0.0, SVG Export Plug-In . SVG Version: 6.00 Build 0)  -->
<!DOCTYPE svg PUBLIC "-//W3C//DTD SVG 1.1//EN" "http://www.w3.org/Graphics/SVG/1.1/DTD/svg11.dtd">
<svg version="1.1" id="icon-ualogo" xmlns="http://www.w3.org/2000/svg" xmlns:xlink="http://www.w3.org/1999/xlink" x="0px"
	 y="0px" width="595.281px" height="841.891px" viewBox="0 0 595.281 841.891" enable-background="new 0 0 595.281 841.891"
	 xml:space="preserve">
<path d="M484.558,420.945c64.885-28.573,107.746-71.434,109.531-119.056c0,0-17.264-13.097-72.623-33.932
	c-48.814-17.858-85.721-22.025-85.721-22.025v105.96c0,16.073-6.549,32.146-18.453,46.432
	c-36.908-8.929-77.387-13.691-119.652-13.691c-42.86,0-83.339,4.763-120.247,13.691c-11.906-14.286-18.454-30.358-18.454-46.432
	v-105.96c0,0-36.907,4.167-85.72,22.025C17.858,288.793,1.19,301.889,1.19,301.889c2.381,47.622,44.646,90.482,110.127,119.056
	C45.836,449.518,3.572,492.379,1.19,540.002c0,0,17.263,13.096,72.625,33.931c48.813,17.858,85.72,22.025,85.72,22.025v-105.96
	c0-16.072,6.548-32.146,18.454-46.432c36.907,8.929,77.386,13.691,119.651,13.691c42.859,0,83.34-4.763,120.246-13.691
	c11.906,14.286,18.455,30.359,18.455,46.432v105.96c0,0,36.906-4.167,85.719-22.025c55.361-20.239,72.029-33.931,72.029-33.931
	C591.708,492.379,549.443,449.518,484.558,420.945L484.558,420.945z M297.64,444.757h-1.19c-38.693,0-69.648-9.524-92.864-23.812
	c23.216-14.287,54.17-23.812,92.864-23.812h2.382c38.691,0,69.646,9.524,92.863,23.812c-23.217,14.287-54.172,23.812-92.863,23.812
	H297.64L297.64,444.757z"/>
</svg>
